nColumns=19
nRows=103
DataType=double
version=3
OpenSimVersion=4.1
endheader
time	ground_force_1_vx	ground_force_1_vy	ground_force_1_vz	ground_force_1_px	ground_force_1_py	ground_force_1_pz	ground_force_1_mx	ground_force_1_my	ground_force_1_mz	ground_force_2_vx	ground_force_2_vy	ground_force_2_vz	ground_force_2_px	ground_force_2_py	ground_force_2_pz	ground_force_2_mx	ground_force_2_my	ground_force_2_mz
0	0	0	0	0.022406	0	-0.130348	0	0	0	0	0	0	0.679676	0	-0.194887	0	0	0
0.01	-7.86709	14.9612	0.179435	0.023998	0.0027	-0.131319	0	-0.0476871	0	0	0	0	0.679676	0	-0.194887	0	0	0
0.02	-20.1366	95.3158	5.08098	0.039048	0.006	-0.141729	0	-0.00329925	0	0	0	0	0.679676	0	-0.194887	0	0	0
0.03	-19.2884	192.974	13.4339	0.0449795	0.006	-0.145767	0	-0.236419	0	0	0	0	0.679676	0	-0.194887	0	0	0
0.04	-37.228	264.604	17.7139	0.0493905	0.006	-0.147404	0	-0.581995	0	0	0	0	0.679676	0	-0.194887	0	0	0
0.05	-60.0649	322.585	23.0687	0.0542796	0.006	-0.149306	0	-0.223844	0	0	0	0	0.679676	0	-0.194887	0	0	0
0.06	-75.9238	381.376	27.8537	0.0604548	0.006	-0.149498	0	0.844751	0	0	0	0	0.679676	0	-0.194887	0	0	0
0.07	-98.7522	445.323	25.6949	0.0701934	0.006	-0.147525	0	1.46098	0	0	0	0	0.679676	0	-0.194887	0	0	0
0.08	-128.376	520.507	14.7061	0.0824226	0.006	-0.144338	0	1.0276	0	0	0	0	0.679676	0	-0.194887	0	0	0
0.09	-151.533	587.924	1.8198	0.0925562	0.006	-0.141529	0	0.636507	0	0	0	0	0.679676	0	-0.194887	0	0	0
0.1	-160.354	628.555	-6.40195	0.0990725	0.006	-0.139672	0	0.865784	0	0	0	0	0.679676	0	-0.194887	0	0	0
0.11	-162.497	652.886	-12.7961	0.103736	0.006	-0.138212	0	1.16661	0	0	0	0	0.679676	0	-0.194887	0	0	0
0.12	-162.969	676.255	-19.7412	0.107449	0.006	-0.136798	0	1.26326	0	0	0	0	0.679676	0	-0.194887	0	0	0
0.13	-160.544	698.401	-24.9921	0.110206	0.006	-0.1357	0	1.35315	0	0	0	0	0.679676	0	-0.194887	0	0	0
0.14	-155.22	714.876	-27.4301	0.112011	0.006	-0.13496	0	1.5067	0	0	0	0	0.679676	0	-0.194887	0	0	0
0.15	-148.152	726.307	-29.3357	0.11326	0.006	-0.134279	0	1.50828	0	0	0	0	0.679676	0	-0.194887	0	0	0
0.16	-139.664	732.448	-31.052	0.114338	0.006	-0.133443	0	1.3446	0	0	0	0	0.679676	0	-0.194887	0	0	0
0.17	-129.196	729.73	-31.5132	0.115642	0.006	-0.132422	0	1.17099	0	0	0	0	0.679676	0	-0.194887	0	0	0
0.18	-118.305	717.807	-32.1765	0.117686	0.006	-0.131033	0	0.93208	0	0	0	0	0.679676	0	-0.194887	0	0	0
0.19	-108.549	698.91	-33.0361	0.120605	0.006	-0.129319	0	0.640961	0	0	0	0	0.679676	0	-0.194887	0	0	0
0.2	-101.109	676.05	-33.6466	0.124395	0.006	-0.127406	0	0.394448	0	0	0	0	0.679676	0	-0.194887	0	0	0
0.21	-95.5444	650.929	-34.1616	0.128829	0.006	-0.125303	0	0.210524	0	0	0	0	0.679676	0	-0.194887	0	0	0
0.22	-89.8267	624.822	-34.7371	0.133202	0.006	-0.123148	0	0.062069	0	0	0	0	0.679676	0	-0.194887	0	0	0
0.23	-83.4428	599.968	-35.0443	0.137223	0.006	-0.121123	0	-0.034888	0	0	0	0	0.679676	0	-0.194887	0	0	0
0.24	-76.6749	577.072	-34.5916	0.140893	0.006	-0.119238	0	-0.0872837	0	0	0	0	0.679676	0	-0.194887	0	0	0
0.25	-69.8984	555.865	-33.4748	0.144391	0.006	-0.117552	0	-0.153483	0	0	0	0	0.679676	0	-0.194887	0	0	0
0.26	-63.1331	535.517	-32.0061	0.14748	0.006	-0.116093	0	-0.288331	0	0	0	0	0.679676	0	-0.194887	0	0	0
0.27	-56.0785	515.704	-30.315	0.150066	0.006	-0.114713	0	-0.509017	0	0	0	0	0.679676	0	-0.194887	0	0	0
0.28	-48.5851	497.591	-28.6119	0.152491	0.006	-0.113443	0	-0.725384	0	0	0	0	0.679676	0	-0.194887	0	0	0
0.29	-41.2097	481.505	-27.2075	0.154743	0.006	-0.112241	0	-0.888257	0	0	0	0	0.679676	0	-0.194887	0	0	0
0.3	-34.746	467.406	-26.4505	0.157016	0.006	-0.111011	0	-1.04739	0	0	0	0	0.679676	0	-0.194887	0	0	0
0.31	-29.5281	456.008	-26.1616	0.1594	0.006	-0.109707	0	-1.23877	0	0	0	0	0.679676	0	-0.194887	0	0	0
0.32	-25.561	449.402	-26.1091	0.162052	0.006	-0.108664	0	-1.42697	0	0	0	0	0.679676	0	-0.194887	0	0	0
0.33	-22.7847	446.464	-26.7048	0.164917	0.006	-0.107847	0	-1.60325	0	0	0	0	0.679676	0	-0.194887	0	0	0
0.34	-20.6637	445.03	-27.9319	0.167684	0.006	-0.107134	0	-1.78868	0	0	0	0	0.679676	0	-0.194887	0	0	0
0.35	-18.4582	444.693	-29.6628	0.17021	0.006	-0.106603	0	-1.99996	0	0	0	0	0.679676	0	-0.194887	0	0	0
0.36	-15.8231	446.616	-31.5008	0.172582	0.006	-0.106335	0	-2.24421	0	0	0	0	0.679676	0	-0.194887	0	0	0
0.37	-13.0794	451.674	-32.7773	0.174909	0.006	-0.106515	0	-2.54534	0	0	0	0	0.679676	0	-0.194887	0	0	0
0.38	-10.7323	460.04	-33.3729	0.177353	0.006	-0.107111	0	-2.949	0	0	0	0	0.679676	0	-0.194887	0	0	0
0.39	-8.72554	471.439	-33.0764	0.179794	0.006	-0.108106	0	-3.47739	0	0	0	0	0.679676	0	-0.194887	0	0	0
0.4	-6.75302	485.971	-31.3615	0.182217	0.006	-0.109578	0	-4.09521	0	0	0	0	0.679676	0	-0.194887	0	0	0
0.41	-4.37491	502.266	-28.6937	0.184526	0.006	-0.111293	0	-4.78104	0	0	0	0	0.679676	0	-0.194887	0	0	0
0.42	-1.2832	519.644	-25.9124	0.186961	0.006	-0.11303	0	-5.45836	0	0	0	0	0.679676	0	-0.194887	0	0	0
0.43	2.15769	538.272	-23.7235	0.189587	0.006	-0.114767	0	-6.09466	0	0	0	0	0.679676	0	-0.194887	0	0	0
0.44	5.93476	556.945	-22.7453	0.192252	0.006	-0.116334	0	-6.648	0	0	0	0	0.679676	0	-0.194887	0	0	0
0.45	10.2077	574.991	-22.8178	0.194903	0.006	-0.117696	0	-7.06197	0	0	0	0	0.679676	0	-0.194887	0	0	0
0.46	15.0798	593.242	-23.5159	0.197552	0.006	-0.118719	0	-7.31203	0	0	0	0	0.679676	0	-0.194887	0	0	0
0.47	20.5054	612.122	-24.5546	0.200248	0.006	-0.119332	0	-7.39176	0	0	0	0	0.679676	0	-0.194887	0	0	0
0.48	26.341	630.707	-25.9409	0.203012	0.006	-0.119485	0	-7.29659	0	0	0	0	0.679676	0	-0.194887	0	0	0
0.49	32.4588	647.524	-27.8883	0.206111	0.006	-0.119256	0	-7.06461	0	0	0	0	0.679676	0	-0.194887	0	0	0
0.5	38.2635	660.254	-30.1859	0.209576	0.006	-0.118824	0	-6.70029	0	0	0	0	0.679676	0	-0.194887	0	0	0
0.51	43.3208	668.371	-32.5331	0.213244	0.006	-0.118322	0	-6.27271	0	0	0	0	0.679676	0	-0.194887	0	0	0
0.52	47.9232	673.519	-34.7389	0.217144	0.006	-0.117838	0	-5.79037	0	0	0	0	0.679676	0	-0.194887	0	0	0
0.53	52.0491	676.643	-36.3561	0.221082	0.006	-0.11734	0	-5.28411	0	0	0	0	0.679676	0	-0.194887	0	0	0
0.54	55.8303	677.963	-36.7084	0.224843	0.006	-0.116954	0	-4.84022	0	0	0	0	0.679676	0	-0.194887	0	0	0
0.55	60.121	677.366	-35.6196	0.228309	0.006	-0.116692	0	-4.46638	0	0	0	0	0.679676	0	-0.194887	0	0	0
0.56	65.5286	673.372	-33.5581	0.231485	0.006	-0.116515	0	-4.18749	0	0	0	0	0.679676	0	-0.194887	0	0	0
0.57	71.6803	665.475	-31.1166	0.234559	0.006	-0.116436	0	-3.94784	0	-0.00372265	2.23656	-0.605423	0.679676	0.0006	-0.194887	0	0.0246333	0
0.58	77.8269	654.141	-29.0711	0.237541	0.006	-0.116457	0	-3.7052	0	4.42795	50.605	-8.17042	0.693979	0.006	-0.205235	0	0.499903	0
0.59	83.8893	639.508	-27.4802	0.240258	0.006	-0.116532	0	-3.39743	0	7.10512	99.2401	-11.771	0.70736	0.006	-0.212429	0	0.662869	0
0.6	89.7389	620.179	-25.9456	0.242787	0.006	-0.116627	0	-2.99229	0	0.0561619	130.373	-16.7963	0.712111	0.006	-0.211631	0	0.472438	0
0.61	95.3594	595.536	-23.8146	0.245252	0.006	-0.116724	0	-2.57567	0	-7.61288	154.603	-21.8716	0.715674	0.006	-0.209788	0	-0.022534	0
0.62	99.2995	566.706	-21.1333	0.247967	0.006	-0.116919	0	-2.21457	0	-12.9637	176.036	-26.1602	0.719017	0.006	-0.20843	0	-0.595984	0
0.63	100.653	533.993	-18.3269	0.251023	0.006	-0.117218	0	-1.91784	0	-18.1394	198.104	-30.0712	0.725466	0.006	-0.208016	0	-0.88053	0
0.64	100.684	497.407	-15.3316	0.254143	0.006	-0.117555	0	-1.66476	0	-30.8361	243.951	-29.1093	0.740643	0.006	-0.211747	0	-0.523793	0
0.65	99.5663	457.18	-12.2207	0.257332	0.006	-0.117828	0	-1.43665	0	-54.0823	325.874	-19.7853	0.758492	0.006	-0.217513	0	0.372942	0
0.66	95.4764	413.01	-9.30017	0.260637	0.006	-0.117905	0	-1.13141	0	-71.5598	410.95	-12.5024	0.769286	0.006	-0.220689	0	0.960495	0
0.67	89.5498	362.554	-7.12346	0.264134	0.006	-0.117446	0	-0.736774	0	-75.819	462.391	-13.1893	0.77471	0.006	-0.221758	0	0.719595	0
0.68	82.6916	305.498	-5.27063	0.267907	0.006	-0.116355	0	-0.42343	0	-75.4679	480.903	-12.1661	0.778422	0.006	-0.222768	0	0.347457	0
0.69	72.8143	244.873	-3.24893	0.272531	0.006	-0.114988	0	-0.309744	0	-74.7773	487.632	-3.92335	0.781772	0.006	-0.224614	0	0.37763	0
0.7	59.5235	185.515	-1.83037	0.278878	0.006	-0.113409	0	-0.222444	0	-76.8173	497.777	5.59947	0.785205	0.006	-0.226726	0	0.31811	0
0.71	44.1559	132.951	-0.900546	0.286939	0.006	-0.11135	0	-0.13913	0	-80.7635	513.997	10.0871	0.788222	0.006	-0.22814	0	-0.0974574	0
0.72	27.8721	91.0527	-0.29988	0.295947	0.006	-0.109076	0	-0.051671	0	-82.1895	533.942	11.5674	0.790683	0.006	-0.229092	0	-0.480371	0
0.73	13.7001	60.6926	-0.397583	0.305101	0.006	-0.105948	0	0.033134	0	-81.8817	558.019	12.1339	0.793322	0.006	-0.23001	0	-0.73639	0
0.74	4.0103	38.2135	-0.809101	0.316157	0.006	-0.101136	0	0.0373836	0	-81.0895	584.355	9.81363	0.79654	0.006	-0.23072	0	-1.0705	0
0.75	-0.655069	13.474	-0.58506	0.331901	0.0033	-0.0925626	0	-0.019358	0	-80.2132	609.109	6.01071	0.80058	0.006	-0.231452	0	-1.34329	0
0.76	0	0	0	0.356094	0	-0.092942	0	0	0	-79.6392	627.79	2.26066	0.80528	0.006	-0.23237	0	-1.50383	0
0.77	0	0	0	0.381202	0	-0.0953798	0	0	0	-78.7677	638.574	-0.636593	0.810116	0.006	-0.233584	0	-1.5247	0
0.78	0	0	0	0.40631	0	-0.0978176	0	0	0	-76.3214	643.056	-2.02502	0.814588	0.006	-0.235018	0	-1.48041	0
0.79	0	0	0	0.431419	0	-0.100255	0	0	0	-72.4795	643.219	-1.65503	0.818336	0.006	-0.236784	0	-1.42285	0
0.8	0	0	0	0.456527	0	-0.102693	0	0	0	-67.5952	640.066	0.21241	0.82155	0.006	-0.238991	0	-1.34069	0
0.81	0	0	0	0.481635	0	-0.105131	0	0	0	-62.4734	634.815	2.66995	0.824687	0.006	-0.241325	0	-1.21829	0
0.82	0	0	0	0.506743	0	-0.107569	0	0	0	-57.9254	629.102	4.75672	0.828039	0.006	-0.243523	0	-1.05889	0
0.83	0	0	0	0.531852	0	-0.110007	0	0	0	-54.1998	623.188	6.15713	0.831678	0.006	-0.2457	0	-0.835602	0
0.84	0	0	0	0.55696	0	-0.112444	0	0	0	-51.1961	615.681	6.7495	0.835521	0.006	-0.247792	0	-0.605926	0
0.85	0	0	0	0.582068	0	-0.114882	0	0	0	-48.3975	607.073	6.4832	0.839513	0.006	-0.24979	0	-0.418012	0
0.86	0	0	0	0.607176	0	-0.11732	0	0	0	-45.4412	598.76	4.83773	0.843429	0.006	-0.251602	0	-0.21242	0
0.87	0	0	0	0.632285	0	-0.119758	0	0	0	-42.197	591.73	1.96012	0.846859	0.006	-0.252869	0	0.0356042	0
0.88	0	0	0	0.657393	0	-0.122196	0	0	0	-38.727	585.141	-1.06143	0.849817	0.006	-0.253806	0	0.311651	0
0.89	0	0	0	0.682501	0	-0.124634	0	0	0	-35.2672	577.512	-3.42209	0.852614	0.006	-0.254916	0	0.590984	0
0.9	0	0	0	0.707609	0	-0.127071	0	0	0	-32.0314	569.208	-4.2812	0.855265	0.006	-0.256244	0	0.857079	0
0.91	0	0	0	0.732718	0	-0.129509	0	0	0	-28.5878	561.159	-3.38263	0.857644	0.006	-0.257686	0	1.0433	0
0.92	0	0	0	0.757826	0	-0.131947	0	0	0	-24.7854	553.732	-0.962554	0.859797	0.006	-0.259305	0	1.17095	0
0.93	0	0	0	0.782934	0	-0.134385	0	0	0	-20.959	546.807	2.35513	0.861781	0.006	-0.26101	0	1.26685	0
0.94	0	0	0	0.808043	0	-0.136823	0	0	0	-17.0749	540.821	5.98459	0.863685	0.006	-0.262482	0	1.365	0
0.95	0	0	0	0.833151	0	-0.13926	0	0	0	-12.9767	535.989	9.35586	0.865545	0.006	-0.26376	0	1.45701	0
0.96	0	0	0	0.858259	0	-0.141698	0	0	0	-9.05277	531.594	11.916	0.867463	0.006	-0.264827	0	1.5659	0
0.97	0	0	0	0.883367	0	-0.144136	0	0	0	-5.53202	526.561	13.3385	0.869625	0.006	-0.265682	0	1.73495	0
0.98	0	0	0	0.908476	0	-0.146574	0	0	0	-2.23621	520.322	13.5521	0.871829	0.006	-0.266148	0	1.9953	0
0.99	0	0	0	0.933584	0	-0.149012	0	0	0	1.11542	513.278	12.7502	0.873998	0.006	-0.266433	0	2.33773	0
1	0	0	0	0.958692	0	-0.15145	0	0	0	4.68383	506.555	11.4072	0.876095	0.006	-0.266604	0	2.74087	0
1.01	0	0	0	0.9838	0	-0.153887	0	0	0	8.48224	500.92	9.85358	0.878118	0.006	-0.266502	0	3.16486	0
1.02	0	0	0	1.00891	0	-0.156325	0	0	0	12.2517	496.595	8.33958	0.880154	0.006	-0.266144	0	3.6037	0
